# xmcd database file
#
# Track frame offsets:
# 150
# 2517
# 4979
# 7085
#
# Disc length: 265 seconds
#
# Revision: 0
# Processed by: cddbd v1.5.2PL0 Copyright (c) Steve Scherf et al.
# Submitted via: CD-Runner 2005.30
#
DISCID=21010704
DTITLE=Sugarland - Test Drive Before you Enjoy The Ride
DYEAR=2006
DGENRE=Country
TTITLE0=Want to (Snippet)
TTITLE1=Settlin' (Snippet)
TTITLE2=One Blue Sky (Snippet)
TTITLE3=County Line
EXTD=
EXTT0=
EXTT1=
EXTT2=
EXTT3=
PLAYORDER=
